<svg width="14" height="14" viewBox="0 0 14 14" fill="none" xmlns="http://www.w3.org/2000/svg">
<g clip-path="url(#clip0_2367_525)">
<path d="M1.81142 0.823486H3.04671V2.05878C3.04671 2.30584 3.2526 2.47055 3.45848 2.47055C3.66436 2.47055 3.87024 2.30584 3.87024 2.05878V0.823486H10.4585V2.05878C10.4585 2.30584 10.6644 2.47055 10.8702 2.47055C11.0761 2.47055 11.282 2.30584 11.282 2.05878V0.823486H12.5173C13.1349 0.823486 13.5879 1.35878 13.5879 2.05878V3.54113H0.41142V2.05878C0.41142 1.35878 1.1526 0.823486 1.81142 0.823486ZM13.5879 4.40584V11.9411C13.5879 12.6823 13.1349 13.1764 12.4761 13.1764H1.77024C1.11142 13.1764 0.370244 12.6411 0.370244 11.9411V4.40584H13.5879ZM9.92318 11.3235H10.9114C11.0761 11.3235 11.2408 11.2 11.2408 10.9941V9.96466C11.2408 9.79996 11.1173 9.63525 10.9114 9.63525H9.88201C9.7173 9.63525 9.5526 9.75878 9.5526 9.96466V10.9941C9.59377 11.2 9.7173 11.3235 9.92318 11.3235ZM9.92318 7.6176H10.9114C11.0761 7.6176 11.2408 7.49407 11.2408 7.28819V6.25878C11.2408 6.09407 11.1173 5.92937 10.9114 5.92937H9.88201C9.7173 5.92937 9.5526 6.0529 9.5526 6.25878V7.28819C9.59377 7.49407 9.7173 7.6176 9.92318 7.6176ZM6.62907 11.3235H7.65848C7.82318 11.3235 7.98789 11.2 7.98789 10.9941V9.96466C7.98789 9.79996 7.86436 9.63525 7.65848 9.63525H6.62907C6.46436 9.63525 6.29965 9.75878 6.29965 9.96466V10.9941C6.29965 11.2 6.42318 11.3235 6.62907 11.3235ZM6.62907 7.6176H7.65848C7.82318 7.6176 7.98789 7.49407 7.98789 7.28819V6.25878C7.98789 6.09407 7.86436 5.92937 7.65848 5.92937H6.62907C6.46436 5.92937 6.29965 6.0529 6.29965 6.25878V7.28819C6.29965 7.49407 6.42318 7.6176 6.62907 7.6176ZM3.33495 11.3235H4.36436C4.52907 11.3235 4.69377 11.2 4.69377 10.9941V9.96466C4.69377 9.79996 4.57024 9.63525 4.36436 9.63525H3.33495C3.17024 9.63525 3.00554 9.75878 3.00554 9.96466V10.9941C3.00554 11.2 3.12907 11.3235 3.33495 11.3235ZM3.33495 7.6176H4.36436C4.52907 7.6176 4.69377 7.49407 4.69377 7.28819V6.25878C4.69377 6.09407 4.57024 5.92937 4.36436 5.92937H3.33495C3.17024 5.92937 3.00554 6.0529 3.00554 6.25878V7.28819C3.00554 7.49407 3.12907 7.6176 3.33495 7.6176Z" fill="#6B7986"/>
</g>
<defs>
<clipPath id="clip0_2367_525">
<rect width="14" height="14" fill="white" transform="matrix(-1 0 0 1 14 0)"/>
</clipPath>
</defs>
</svg>
