<svg width="158" height="158" viewBox="0 0 158 158" fill="none" xmlns="http://www.w3.org/2000/svg">
<path d="M79 87C87.2843 87 94 80.0604 94 71.5C94 62.9396 87.2843 56 79 56C70.7157 56 64 62.9396 64 71.5C64 80.0604 70.7157 87 79 87Z" stroke="#1A86DC" stroke-width="1.4" stroke-miterlimit="10" stroke-linecap="round" stroke-linejoin="round"/>
<path d="M78 84C84.6274 84 90 78.4036 90 71.5C90 64.5964 84.6274 59 78 59C71.3726 59 66 64.5964 66 71.5C66 78.4036 71.3726 84 78 84Z" stroke="#1A86DC" stroke-width="1.4" stroke-miterlimit="10" stroke-linecap="round" stroke-linejoin="round"/>
<path d="M76.1263 71.1067C77.4834 71.1067 78.5836 70.0065 78.5836 68.6494C78.5836 67.2922 77.4834 66.192 76.1263 66.192C74.7691 66.192 73.6689 67.2922 73.6689 68.6494C73.6689 70.0065 74.7691 71.1067 76.1263 71.1067Z" stroke="#1A86DC" stroke-width="1.4" stroke-miterlimit="10" stroke-linecap="round" stroke-linejoin="round"/>
<path d="M82.6023 73.1395C83.3174 73.1395 83.897 72.5598 83.897 71.8448C83.897 71.1297 83.3174 70.5501 82.6023 70.5501C81.8873 70.5501 81.3076 71.1297 81.3076 71.8448C81.3076 72.5598 81.8873 73.1395 82.6023 73.1395Z" stroke="#1A86DC" stroke-width="1.4" stroke-miterlimit="10" stroke-linecap="round" stroke-linejoin="round"/>
<path d="M77.8543 76.6987C78.5693 76.6987 79.149 76.119 79.149 75.404C79.149 74.6889 78.5693 74.1093 77.8543 74.1093C77.1392 74.1093 76.5596 74.6889 76.5596 75.404C76.5596 76.119 77.1392 76.6987 77.8543 76.6987Z" stroke="#1A86DC" stroke-width="1.4" stroke-miterlimit="10" stroke-linecap="round" stroke-linejoin="round"/>
</svg>
