<svg width="30" height="30" viewBox="0 0 30 30" fill="none" xmlns="http://www.w3.org/2000/svg">
<g clip-path="url(#clip0_2363_3)">
<path d="M2.84386 0.187906C2.10837 0.145138 1.38502 0.389654 0.826333 0.869896C-0.275444 1.97822 -0.275444 3.76826 0.826333 4.87659L24.9517 29.002C26.0976 30.0743 27.8958 30.0147 28.9681 28.8688C29.9377 27.8325 29.9942 26.2397 29.1004 25.1374L4.83293 0.869896C4.28151 0.396585 3.5697 0.152529 2.84386 0.187906Z" fill="white"/>
<path d="M26.9404 0.187904C26.195 0.191059 25.4806 0.487001 24.9513 1.01194L0.82586 25.1375C-0.19488 26.3294 -0.0561052 28.1233 1.13588 29.1441C2.19976 30.0552 3.76877 30.0552 4.83255 29.1441L29.1 5.01873C30.2457 3.94615 30.3049 2.14788 29.2323 1.00221C29.1897 0.95664 29.1456 0.912565 29.1 0.869894C28.806 0.614254 28.4626 0.421797 28.0911 0.304476C27.7196 0.187153 27.3279 0.147474 26.9404 0.187904Z" fill="white"/>
</g>
<defs>
<clipPath id="clip0_2363_3">
<rect width="30" height="30" fill="white" transform="matrix(1 0 0 -1 0 30)"/>
</clipPath>
</defs>
</svg>
