<svg width="16" height="16" viewBox="0 0 16 16" fill="none" xmlns="http://www.w3.org/2000/svg">
<path d="M8.13464 11.8C7.93464 11.8 7.8013 11.7334 7.66797 11.6L4.86797 8.80005C4.6013 8.53338 4.6013 8.13338 4.86797 7.86672C5.13464 7.60005 5.53464 7.60005 5.8013 7.86672L8.13464 10.2L13.3346 5.00005C13.6013 4.73338 14.0013 4.73338 14.268 5.00005C14.5346 5.26672 14.5346 5.66672 14.268 5.93338L8.6013 11.6C8.53464 11.7334 8.33464 11.8 8.13464 11.8Z" fill="#0EB9AF"/>
<path d="M4.80065 11.8C4.60065 11.8 4.46732 11.7334 4.33398 11.6L1.53398 8.80005C1.26732 8.53338 1.26732 8.13338 1.53398 7.86672C1.80065 7.60005 2.20065 7.60005 2.46732 7.86672L5.26732 10.6667C5.53398 10.9334 5.53398 11.3334 5.26732 11.6C5.20065 11.7334 5.00065 11.8 4.80065 11.8ZM8.33398 8.33338C8.13398 8.33338 8.00065 8.26672 7.86732 8.13338C7.60065 7.86672 7.60065 7.46672 7.86732 7.20005L10.0007 5.00005C10.2673 4.73338 10.6673 4.73338 10.934 5.00005C11.2007 5.26672 11.2007 5.66672 10.934 5.93338L8.80065 8.13338C8.66732 8.26672 8.53398 8.33338 8.33398 8.33338Z" fill="#0EB9AF"/>
</svg>
