<svg width="30" height="30" viewBox="0 0 30 30" fill="none" xmlns="http://www.w3.org/2000/svg">
<g clip-path="url(#clip0_2267_59)">
<path d="M15 0C12.0333 0 9.13319 0.879735 6.66645 2.52796C4.19972 4.17618 2.27713 6.51886 1.14181 9.25975C0.00649929 12.0006 -0.290551 15.0166 0.288228 17.9264C0.867006 20.8361 2.29562 23.5088 4.3934 25.6066C6.49119 27.7044 9.16394 29.133 12.0737 29.7118C14.9834 30.2906 17.9994 29.9935 20.7403 28.8582C23.4811 27.7229 25.8238 25.8003 27.472 23.3336C29.1203 20.8668 30 17.9667 30 15C30 11.0218 28.4197 7.20644 25.6066 4.3934C22.7936 1.58035 18.9783 0 15 0ZM15 28.75C12.2805 28.75 9.62209 27.9436 7.36092 26.4327C5.09974 24.9218 3.33737 22.7744 2.29666 20.2619C1.25596 17.7494 0.983662 14.9847 1.51421 12.3175C2.04476 9.65027 3.35432 7.20025 5.27729 5.27728C7.20026 3.35431 9.65028 2.04475 12.3175 1.5142C14.9848 0.983656 17.7494 1.25595 20.2619 2.29666C22.7744 3.33736 24.9218 5.09973 26.4327 7.36091C27.9436 9.62209 28.75 12.2805 28.75 15C28.75 18.6467 27.3014 22.1441 24.7227 24.7227C22.1441 27.3013 18.6467 28.75 15 28.75Z" fill="#1A86DC"/>
<path d="M15 2.5C12.5277 2.5 10.111 3.23311 8.05538 4.60663C5.99976 5.98015 4.39761 7.93238 3.45151 10.2165C2.50542 12.5005 2.25787 15.0139 2.74019 17.4386C3.2225 19.8634 4.41301 22.0907 6.16117 23.8388C7.90933 25.587 10.1366 26.7775 12.5614 27.2598C14.9861 27.7421 17.4995 27.4946 19.7836 26.5485C22.0676 25.6024 24.0199 24.0002 25.3934 21.9446C26.7669 19.889 27.5 17.4723 27.5 15C27.5 13.3585 27.1767 11.733 26.5485 10.2165C25.9203 8.69989 24.9996 7.3219 23.8388 6.16117C22.6781 5.00043 21.3001 4.07969 19.7836 3.45151C18.267 2.82332 16.6415 2.5 15 2.5ZM15 26.25C4.32501 26.25 -0.412495 12.5938 8.21876 6.04375C8.40642 6.3466 8.48631 6.70396 8.44547 7.05789C8.40463 7.41182 8.24546 7.74159 7.99376 7.99375L6.11876 9.86875C5.66955 10.318 5.41718 10.9272 5.41718 11.5625C5.41718 11.8771 5.47914 12.1885 5.59951 12.4792C5.71989 12.7698 5.89633 13.0338 6.11876 13.2562C6.34118 13.4787 6.60524 13.6551 6.89585 13.7755C7.18647 13.8959 7.49795 13.9578 7.81251 13.9578C8.44778 13.9578 9.05704 13.7055 9.50626 13.2562C9.74376 13.0187 9.82501 13.2062 11.1313 14.5062C10.9828 14.7371 10.8533 14.9796 10.7438 15.2313C9.79872 15.3023 8.91565 15.7286 8.27212 16.4243C7.62859 17.12 7.27234 18.0336 7.27501 18.9813C7.27501 22.2313 11.7438 24.375 15 24.375C23.2813 24.375 27.5563 14.3 21.6313 8.375C20.8911 7.62479 19.9327 7.12766 18.8932 6.95458C17.8536 6.78151 16.7859 6.94135 15.8426 7.41128C14.8992 7.88121 14.1285 8.63719 13.6405 9.57128C13.1524 10.5054 12.972 11.5698 13.125 12.6125C13.2438 13.45 13.4313 13.1313 12.7625 13.3313C11.7188 13.6375 12.4375 14.075 10.7375 12.3688C10.4531 12.0871 10.069 11.9291 9.66876 11.9291C9.26848 11.9291 8.8844 12.0871 8.60001 12.3688C8.38617 12.5826 8.09616 12.7027 7.79376 12.7027C7.49135 12.7027 7.20134 12.5826 6.98751 12.3688C6.77367 12.1549 6.65355 11.8649 6.65355 11.5625C6.65355 11.2601 6.77367 10.9701 6.98751 10.7562L8.86251 8.88125C9.31793 8.42211 9.60325 7.82147 9.67143 7.17838C9.7396 6.53528 9.58654 5.88816 9.2375 5.34375C10.7252 4.45444 12.3983 3.9209 14.1261 3.78476C15.854 3.64862 17.59 3.91356 19.1986 4.55892C20.8072 5.20427 22.245 6.21258 23.3997 7.50516C24.5544 8.79775 25.3948 10.3397 25.8553 12.0106C26.3159 13.6815 26.3842 15.4363 26.0548 17.1379C25.7254 18.8396 25.0073 20.4421 23.9565 21.8205C22.9057 23.1989 21.5506 24.3158 19.997 25.0842C18.4434 25.8525 16.7332 26.2515 15 26.25ZM13.8188 14.475C14.4438 15.4937 16.15 17.15 16.6813 16.0875C16.7175 16.0137 16.7389 15.9334 16.744 15.8513C16.7492 15.7692 16.7381 15.6869 16.7114 15.6091C16.6847 15.5312 16.6429 15.4595 16.5884 15.3979C16.5339 15.3362 16.4677 15.286 16.3938 15.25C15.8663 14.9814 15.4098 14.5918 15.0618 14.113C14.7138 13.6342 14.484 13.0798 14.3914 12.4952C14.2987 11.9106 14.3458 11.3123 14.5287 10.7494C14.7116 10.1864 15.0252 9.67476 15.4438 9.25625C20.0438 4.65 26.775 14.7125 20.7438 20.7437C19.2201 22.2666 17.1542 23.122 15 23.122C12.8459 23.122 10.7799 22.2666 9.25626 20.7437C8.93625 20.4223 8.70974 20.0198 8.601 19.5794C8.49226 19.139 8.50538 18.6774 8.63896 18.2439C8.77254 17.8104 9.02154 17.4214 9.35929 17.1186C9.69704 16.8158 10.1108 16.6106 10.5563 16.525C10.5873 16.9651 10.7113 17.3936 10.9199 17.7824C11.1285 18.1711 11.417 18.5113 11.7665 18.7805C12.116 19.0497 12.5186 19.2419 12.9477 19.3444C13.3769 19.4468 13.8228 19.4573 14.2563 19.375C14.422 19.3435 14.5685 19.2475 14.6634 19.108C14.7584 18.9685 14.794 18.797 14.7625 18.6313C14.731 18.4655 14.635 18.319 14.4955 18.2241C14.356 18.1291 14.1845 18.0935 14.0188 18.125C13.7197 18.1798 13.4119 18.1611 13.1217 18.0704C12.8315 17.9797 12.5678 17.8199 12.3531 17.6046C12.1385 17.3894 11.9794 17.1251 11.8895 16.8347C11.7997 16.5443 11.7819 16.2364 11.8375 15.9375C11.9268 15.4911 12.1793 15.0939 12.5456 14.8235C12.9119 14.5531 13.3658 14.4289 13.8188 14.475Z" fill="#1A86DC"/>
<path d="M20.306 12.35C20.5405 12.1155 20.6723 11.7973 20.6723 11.4656C20.6723 11.1339 20.5405 10.8158 20.306 10.5813C20.1898 10.4651 20.052 10.373 19.9002 10.3101C19.7485 10.2473 19.5858 10.2149 19.4216 10.2149C19.0899 10.2149 18.7718 10.3467 18.5372 10.5813C18.3027 10.8158 18.1709 11.1339 18.1709 11.4656C18.1709 11.7973 18.3027 12.1155 18.5372 12.35C18.7718 12.5846 19.0899 12.7163 19.4216 12.7163C19.7533 12.7163 20.0714 12.5846 20.306 12.35Z" fill="#1A86DC"/>
</g>
<defs>
<clipPath id="clip0_2267_59">
<rect width="30" height="30" fill="white"/>
</clipPath>
</defs>
</svg>
