<svg width="32" height="32" viewBox="0 0 32 32" fill="none" xmlns="http://www.w3.org/2000/svg">
<g clip-path="url(#clip0_2249_1490)">
<path d="M31.1468 15.3745C31.1468 14.5309 30.8171 13.7358 30.2256 13.1442C29.6292 12.5479 28.8389 12.223 27.9953 12.223C27.1517 12.223 26.3565 12.5527 25.7601 13.1491L25.4741 13.44V7.79636C25.4741 7.78181 25.4644 7.76727 25.4644 7.75272C25.4595 7.69939 25.4498 7.64606 25.4305 7.59272C25.4208 7.56848 25.4159 7.54909 25.4062 7.52969C25.3771 7.47151 25.3432 7.41333 25.2947 7.36C25.2898 7.35515 25.2898 7.3503 25.285 7.34545L18.9674 1.03757C18.9626 1.03272 18.9529 1.02787 18.9432 1.01818C18.8947 0.974541 18.8462 0.940601 18.7929 0.916359C18.7686 0.901814 18.7395 0.896965 18.7105 0.887268C18.6668 0.872723 18.6232 0.863026 18.5795 0.863026C18.5601 0.863026 18.5408 0.84848 18.5214 0.84848H4.005C2.26439 0.84848 0.848633 2.26424 0.848633 4.00484V27.9951C0.848633 29.7358 2.26439 31.1515 4.005 31.1515H22.3129C24.0535 31.1515 25.4692 29.7358 25.4692 27.9951V22.3564L29.3286 18.497L29.3335 18.4921L30.2256 17.6097C30.822 17.0085 31.1468 16.2182 31.1468 15.3745ZM24.3977 21.6436C24.3929 21.6485 24.388 21.6533 24.3832 21.6582L19.9565 26.0848L18.6232 24.7515C18.6086 24.737 18.5892 24.7176 18.5698 24.703L17.2801 23.4133L25.3141 15.3794L27.9856 18.0558L24.3977 21.6436ZM16.7129 24.6255L17.7262 25.6388C17.7456 25.6582 17.765 25.6727 17.7844 25.6873L18.7444 26.6521L15.9517 27.4182L16.7129 24.6255ZM19.1565 3.00606L23.3165 7.16606H21.0523C20.0098 7.16606 19.1565 6.31757 19.1565 5.2703V3.00606ZM24.2086 27.9951C24.2086 29.0376 23.3601 29.8909 22.3129 29.8909H4.005C2.96257 29.8909 2.10924 29.0424 2.10924 27.9951V4.00484C2.10924 2.96242 2.95772 2.10909 4.005 2.10909H17.8911V5.2703C17.8911 7.0109 19.3068 8.42666 21.0474 8.42666H24.2086V14.7006L15.9565 22.9527C15.8935 23.0109 15.8498 23.0788 15.8159 23.1612C15.8111 23.1709 15.8062 23.1806 15.8014 23.1903C15.7965 23.2097 15.782 23.2242 15.7771 23.2485L14.4341 28.16C14.3759 28.3782 14.4389 28.6109 14.5989 28.7709C14.7201 28.8921 14.8801 28.9552 15.045 28.9552C15.0983 28.9552 15.1565 28.9455 15.2098 28.9309L20.1214 27.5879C20.1359 27.583 20.1505 27.5733 20.165 27.5685C20.1844 27.5588 20.2038 27.5539 20.228 27.5442C20.2862 27.5152 20.3395 27.4812 20.388 27.4376C20.3929 27.4327 20.4026 27.4279 20.4074 27.423L24.2086 23.6218V27.9951ZM29.3335 16.7127L28.8826 17.1588L26.2062 14.4824L26.6523 14.0364C27.365 13.3236 28.6159 13.3236 29.3335 14.0364C29.6923 14.3951 29.8862 14.8703 29.8862 15.3745C29.8862 15.8788 29.6923 16.3539 29.3335 16.7127Z" fill="#1A86DC"/>
<path d="M7.79197 4.63513H4.0053C3.65621 4.63513 3.375 4.91634 3.375 5.26543V9.0521C3.375 9.40119 3.65621 9.6824 4.0053 9.6824H7.79197C8.14106 9.6824 8.42227 9.40119 8.42227 9.0521V5.26543C8.42712 4.91634 8.14106 4.63513 7.79197 4.63513ZM7.16167 8.4218H4.64045V5.89574H7.16652V8.4218H7.16167Z" fill="#1A86DC"/>
<path d="M10.3178 6.5309H16.0002C16.3493 6.5309 16.6305 6.24969 16.6305 5.9006C16.6305 5.55151 16.3493 5.27029 16.0002 5.27029H10.3178C9.96871 5.27029 9.6875 5.55151 9.6875 5.9006C9.6875 6.24969 9.96871 6.5309 10.3178 6.5309Z" fill="#1A86DC"/>
<path d="M10.3178 9.05211H14.1045C14.4536 9.05211 14.7348 8.7709 14.7348 8.42181C14.7348 8.07272 14.4536 7.7915 14.1045 7.7915H10.3178C9.96871 7.7915 9.6875 8.07272 9.6875 8.42181C9.6875 8.7709 9.96871 9.05211 10.3178 9.05211Z" fill="#1A86DC"/>
<path d="M7.79197 11.5879H4.0053C3.65621 11.5879 3.375 11.8691 3.375 12.2182V16.0048C3.375 16.3539 3.65621 16.6351 4.0053 16.6351H7.79197C8.14106 16.6351 8.42227 16.3539 8.42227 16.0048V12.2182C8.42712 11.8691 8.14106 11.5879 7.79197 11.5879ZM7.16167 15.3745H4.64045V12.8485H7.16652V15.3745H7.16167Z" fill="#1A86DC"/>
<path d="M10.3178 13.4788H16.0002C16.3493 13.4788 16.6305 13.1976 16.6305 12.8485C16.6305 12.4994 16.3493 12.2182 16.0002 12.2182H10.3178C9.96871 12.2182 9.6875 12.4994 9.6875 12.8485C9.6875 13.1976 9.96871 13.4788 10.3178 13.4788Z" fill="#1A86DC"/>
<path d="M10.3178 16H14.1045C14.4536 16 14.7348 15.7188 14.7348 15.3697C14.7348 15.0206 14.4536 14.7394 14.1045 14.7394H10.3178C9.96871 14.7394 9.6875 15.0206 9.6875 15.3697C9.6875 15.7188 9.96871 16 10.3178 16Z" fill="#1A86DC"/>
<path d="M7.79197 18.5358H4.0053C3.65621 18.5358 3.375 18.817 3.375 19.1661V22.9527C3.375 23.3018 3.65621 23.583 4.0053 23.583H7.79197C8.14106 23.583 8.42227 23.3018 8.42227 22.9527V19.1661C8.42712 18.8218 8.14106 18.5358 7.79197 18.5358ZM7.16167 22.3224H4.64045V19.7964H7.16652V22.3224H7.16167Z" fill="#1A86DC"/>
<path d="M10.3178 20.4315H16.0002C16.3493 20.4315 16.6305 20.1503 16.6305 19.8012C16.6305 19.4521 16.3493 19.1709 16.0002 19.1709H10.3178C9.96871 19.1709 9.6875 19.4521 9.6875 19.8012C9.6875 20.1503 9.96871 20.4315 10.3178 20.4315Z" fill="#1A86DC"/>
<path d="M14.7348 22.3224C14.7348 21.9733 14.4536 21.6921 14.1045 21.6921H10.3178C9.96871 21.6921 9.6875 21.9733 9.6875 22.3224C9.6875 22.6715 9.96871 22.9527 10.3178 22.9527H14.1045C14.4536 22.9527 14.7348 22.6715 14.7348 22.3224Z" fill="#1A86DC"/>
</g>
<defs>
<clipPath id="clip0_2249_1490">
<rect width="32" height="32" fill="white"/>
</clipPath>
</defs>
</svg>
