<svg width="87" height="49" viewBox="0 0 87 49" fill="none" xmlns="http://www.w3.org/2000/svg">
<rect x="8.65283" y="0.544189" width="66.457" height="46.0353" rx="5" fill="#F1E1EC"/>
<path d="M65.1184 39.1801L65.1146 45.3743C65.1144 45.6905 64.9887 45.9938 64.7651 46.2174C64.5415 46.441 64.2383 46.5667 63.922 46.5669L62.0878 46.5668C61.7715 46.5667 61.4683 46.441 61.2447 46.2174C61.0211 45.9938 60.8954 45.6905 60.8952 45.3743L60.8914 39.1801H55.5456C55.2292 39.1801 54.9258 39.0544 54.7021 38.8307C54.4784 38.6069 54.3527 38.3035 54.3526 37.9871C54.3526 34.3592 53.8578 34.9611 60.8914 34.9616L60.8956 29.2623C51.5553 27.6521 47.6459 16.2134 54.032 9.18612C55.3267 7.75963 56.943 6.66257 58.7466 5.98602C60.5503 5.30946 62.4894 5.07294 64.4028 5.29608C66.3163 5.51922 68.1489 6.19559 69.7485 7.26902C71.3481 8.34246 72.6686 9.782 73.6003 11.4681C74.5319 13.1542 75.048 15.0383 75.1055 16.9638C75.163 18.8894 74.7604 20.8009 73.931 22.5396C73.1016 24.2783 71.8694 25.7941 70.3367 26.9611C68.8041 28.1281 67.0151 28.9127 65.1184 29.2496C65.1142 29.2707 65.1142 34.9405 65.1184 34.9616H70.4642C70.7806 34.9616 71.084 35.0873 71.3077 35.311C71.5314 35.5348 71.6571 35.8382 71.6572 36.1546V37.9871C71.6571 38.3035 71.5314 38.6069 71.3077 38.8307C71.084 39.0544 70.7806 39.1801 70.4642 39.1801H65.1184ZM68.4384 22.7657C69.512 21.6912 70.243 20.3226 70.5389 18.8327C70.8348 17.3429 70.6823 15.7988 70.1008 14.3956C69.5193 12.9924 68.5347 11.7931 67.2717 10.9493C66.0087 10.1056 64.5238 9.65522 63.0049 9.65522C61.486 9.65522 60.0011 10.1056 58.7381 10.9493C57.4751 11.7931 56.4905 12.9924 55.909 14.3956C55.3274 15.7988 55.175 17.3429 55.4709 18.8327C55.7668 20.3226 56.4977 21.6912 57.5714 22.7657C58.2848 23.4795 59.1318 24.0458 60.0641 24.4321C60.9964 24.8185 61.9957 25.0173 63.0049 25.0173C64.0141 25.0173 65.0134 24.8185 65.9457 24.4321C66.878 24.0458 67.725 23.4795 68.4384 22.7657Z" fill="#F1D6E7"/>
<path d="M51.9178 44.8197C52.0272 45.7014 51.3264 46.4757 50.4379 46.4757H31.2734C31.1926 46.4757 31.1112 46.4757 31.0304 46.4757H11.8651C10.9774 46.4757 10.277 45.7027 10.385 44.8215C10.3857 44.8158 10.3865 44.81 10.3872 44.8043C10.495 43.9342 10.7606 43.1064 11.1134 42.3061C11.5311 41.358 12.293 40.7251 13.1222 40.1644C14.6324 39.1432 16.3086 38.4516 17.98 37.7533C19.1822 37.2514 20.3921 36.7663 21.5905 36.2561C24.9882 34.7267 25.441 33.5567 25.4925 33.3729C25.5171 33.266 25.5349 33.1563 25.5455 33.0447C25.5695 32.7901 25.5888 32.535 25.6056 32.2795V31.6177C21.0623 31.6579 18.5019 30.4686 17.2099 29.5557C16.6936 29.191 16.7219 28.437 17.2353 28.0681C18.4576 27.19 20.206 24.6636 20.0355 17.3955C19.7761 6.31973 24.8818 4.49094 26.7852 3.76664C32.3274 1.65968 35.1125 5.0107 35.1125 5.0107C41.5368 4.41634 43.3098 11.4346 42.5205 19.4279C41.9849 24.8519 43.8347 27.1679 45.0791 28.0964C45.5823 28.4718 45.5249 29.2345 45.0002 29.5793C41.7645 31.7056 36.7459 31.5518 36.7459 31.5518V32.9099C36.7497 32.9542 36.7531 32.9989 36.7574 33.0432C36.768 33.1544 36.7858 33.2641 36.8103 33.3714C36.8623 33.5558 37.3147 34.7257 40.7124 36.2547C41.9108 36.7648 43.1206 37.2504 44.3228 37.7519C45.9947 38.4497 47.6705 39.1413 49.1807 40.163C50.0099 40.7241 50.7717 41.3565 51.1895 42.3046C51.5422 43.1045 51.8079 43.9327 51.9157 44.8028C51.9164 44.8084 51.9171 44.8141 51.9178 44.8197Z" fill="#F32C7D"/>
</svg>
