<svg width="32" height="32" viewBox="0 0 32 32" fill="none" xmlns="http://www.w3.org/2000/svg">
<g clip-path="url(#clip0_2249_1487)">
<path d="M15.855 17.305L21.855 21.805C22.297 22.1365 22.9235 22.047 23.255 21.605C23.5865 21.163 23.497 20.5365 23.055 20.205L17.5 16V7.5C17.5 6.9475 17.0525 6.5 16.5 6.5C15.9475 6.5 15.5 6.9475 15.5 7.5V16.5C15.5 16.832 15.639 17.131 15.855 17.305Z" fill="#1A86DC"/>
<path d="M16.9995 1C9.68002 1 3.42952 6.283 2.20952 13.5L1.82952 12.935C1.52002 12.4765 0.898022 12.3555 0.439522 12.665C-0.0189784 12.9745 -0.139978 13.5965 0.169522 14.055L2.16952 17.055C2.33402 17.305 2.60202 17.4685 2.89952 17.5H2.99952C3.26452 17.499 3.51802 17.393 3.70452 17.205L6.20452 14.705C6.59502 14.3145 6.59502 13.6805 6.20452 13.29C5.81402 12.8995 5.18002 12.8995 4.78952 13.29L4.16952 13.915C5.32102 6.828 11.9995 2.017 19.086 3.1685C26.1725 4.32 30.9845 10.998 29.833 18.085C28.8105 24.378 23.375 29.001 16.9995 29C12.9785 29.073 9.17552 27.176 6.81452 23.92C6.49402 23.47 5.86952 23.3645 5.41952 23.685C4.96952 24.0055 4.86402 24.63 5.18452 25.08C7.91852 28.866 12.3305 31.0765 16.9995 31C25.284 31 31.9995 24.2845 31.9995 16C31.9995 7.7155 25.284 1 16.9995 1Z" fill="#1A86DC"/>
</g>
<defs>
<clipPath id="clip0_2249_1487">
<rect width="32" height="32" fill="white"/>
</clipPath>
</defs>
</svg>
