<svg width="22" height="22" viewBox="0 0 22 22" fill="none" xmlns="http://www.w3.org/2000/svg">
<g clip-path="url(#clip0_2366_48)">
<path d="M12.1733 3.92356C11.9045 3.65475 11.4693 3.65475 11.2012 3.92356L10.7983 4.32644C10.5295 4.59525 10.5295 5.03044 10.7983 5.29856L10.9997 5.5L2.66655 13.8332C2.27948 14.2203 2.06223 14.7448 2.06223 15.2921V19.25L1.03098 20.2813C0.841234 20.471 0.841234 20.779 1.03098 20.9688C1.22073 21.1585 1.52873 21.1585 1.71848 20.9688L2.74973 19.9375H6.70767C7.25492 19.9375 7.77948 19.7203 8.16586 19.3332L16.4997 11L16.7012 11.2014C16.97 11.4703 17.4052 11.4703 17.6733 11.2014L18.0762 10.7986C18.345 10.5298 18.345 10.0946 18.0762 9.82644L12.1733 3.92356ZM5.49973 15.8125C5.12023 15.8125 4.81223 15.5045 4.81223 15.125C4.81223 14.7455 5.12023 14.4375 5.49973 14.4375C5.87923 14.4375 6.18723 14.7455 6.18723 15.125C6.18723 15.5045 5.87923 15.8125 5.49973 15.8125ZM7.56223 13.75C7.18273 13.75 6.87473 13.442 6.87473 13.0625C6.87473 12.683 7.18273 12.375 7.56223 12.375C7.94173 12.375 8.24973 12.683 8.24973 13.0625C8.24973 13.442 7.94173 13.75 7.56223 13.75ZM9.62473 11.6875C9.24523 11.6875 8.93723 11.3795 8.93723 11C8.93723 10.6205 9.24523 10.3125 9.62473 10.3125C10.0042 10.3125 10.3122 10.6205 10.3122 11C10.3122 11.3795 10.0042 11.6875 9.62473 11.6875ZM11.6872 9.625C11.3077 9.625 10.9997 9.317 10.9997 8.9375C10.9997 8.558 11.3077 8.25 11.6872 8.25C12.0667 8.25 12.3747 8.558 12.3747 8.9375C12.3747 9.317 12.0667 9.625 11.6872 9.625ZM20.8262 6.67356L20.4233 7.07644C20.1545 7.34525 19.7193 7.34525 19.4512 7.07644L19.2497 6.875L17.6733 8.45144L13.5483 4.32644L15.1247 2.75L14.9233 2.54856C14.6545 2.27975 14.6545 1.84456 14.9233 1.57644L15.3262 1.17356C15.595 0.904751 16.0302 0.904751 16.2983 1.17356L20.8262 5.70144C21.0943 5.96956 21.0943 6.40544 20.8262 6.67356Z" fill="#0EB9AF"/>
</g>
<defs>
<clipPath id="clip0_2366_48">
<rect width="22" height="22" fill="white"/>
</clipPath>
</defs>
</svg>
