<svg width="68" height="47" viewBox="0 0 68 47" fill="none" xmlns="http://www.w3.org/2000/svg">
<rect x="0.973633" y="0.375732" width="66.7209" height="46.2181" rx="5" fill="#DCEBF8"/>
<g clip-path="url(#clip0_2176_84)">
<path d="M49.9869 8.02087V12.3659H60.2772L52.6388 20.0043C50.187 18.1854 47.1514 17.109 43.8641 17.109C35.722 17.109 29.1216 23.7094 29.1216 31.8515C29.1216 39.9935 35.722 46.5939 43.864 46.5939C52.006 46.5939 58.6064 39.9935 58.6064 31.8515C58.6064 28.5642 57.5301 25.5285 55.7111 23.0767L63.3496 15.4383V25.7287H67.6946V8.02087L49.9869 8.02087ZM43.864 41.7385C38.4035 41.7385 33.9769 37.3119 33.9769 31.8514C33.9769 26.3909 38.4035 21.9643 43.864 21.9643C49.3245 21.9643 53.7511 26.3909 53.7511 31.8514C53.7511 37.312 49.3245 41.7385 43.864 41.7385Z" fill="#CFE6F7"/>
</g>
<g clip-path="url(#clip1_2176_84)">
<mask id="mask0_2176_84" style="mask-type:luminance" maskUnits="userSpaceOnUse" x="2" y="2" width="45" height="45">
<path d="M2.71143 2.80829H46.497V46.5939H2.71143V2.80829Z" fill="white"/>
</mask>
<g mask="url(#mask0_2176_84)">
<path d="M38.7305 35.7296L31.7413 33.9818L31.1465 31.6028C33.0165 29.751 34.2972 27.2078 34.6767 24.5989C35.713 24.307 36.5157 23.4185 36.6544 22.3038L37.1105 18.655C37.2072 17.8851 36.97 17.1061 36.4592 16.5223C36.16 16.1793 35.7823 15.9202 35.3645 15.7615L35.5324 12.3262L36.2147 11.642C37.2418 10.5492 38.0938 8.67556 36.3132 5.9572C34.9449 3.86826 32.6206 2.80829 29.4024 2.80829C28.1326 2.80829 25.2099 2.80829 22.4879 4.63634C14.716 4.79871 13.6578 8.40919 13.6578 11.9303C13.6578 12.7494 13.8567 14.5939 13.988 15.7068C13.5192 15.8546 13.0923 16.1282 12.7602 16.5041C12.2421 17.0933 11.9994 17.876 12.098 18.655L12.5541 22.3038C12.7037 23.4933 13.6067 24.4292 14.7488 24.6518C15.1265 27.1604 16.3415 29.6215 18.1039 31.4422L17.469 33.9836L10.4797 35.7314C5.90412 36.8735 2.71143 40.9638 2.71143 45.6817C2.71143 46.1852 3.12009 46.5939 3.62363 46.5939H45.5848C46.0883 46.5939 46.497 46.1815 46.497 45.678C46.497 40.9638 43.3043 36.8735 38.7305 35.7296Z" fill="#299FE9"/>
</g>
</g>
<defs>
<clipPath id="clip0_2176_84">
<rect width="38.573" height="38.573" fill="white" transform="translate(29.1216 8.02087)"/>
</clipPath>
<clipPath id="clip1_2176_84">
<rect width="43.7856" height="43.7856" fill="white" transform="translate(2.71143 2.80829)"/>
</clipPath>
</defs>
</svg>
