<svg width="30" height="30" viewBox="0 0 30 30" fill="none" xmlns="http://www.w3.org/2000/svg">
<g clip-path="url(#clip0_2249_1502)">
<path d="M22.6348 7.38245C22.9582 7.38245 23.2207 7.64495 23.2207 7.96838C23.2207 8.29182 22.9582 8.55432 22.6348 8.55432C22.3113 8.55432 22.0488 8.29182 22.0488 7.96838C22.0488 7.64495 22.3113 7.38245 22.6348 7.38245Z" fill="#1A86DC"/>
<path d="M17.3616 18.3389H19.1193V16.5812C19.1193 16.2577 19.3817 15.9953 19.7053 15.9953C20.0288 15.9953 20.2911 16.2577 20.2911 16.5812V18.3389H22.0488C22.3724 18.3389 22.6348 18.6013 22.6348 18.9248C22.6348 19.2483 22.3724 19.5107 22.0488 19.5107H20.2911V21.2684C20.2911 21.592 20.0288 21.8544 19.7053 21.8544C19.3818 21.8544 19.1193 21.592 19.1193 21.2684V19.5107H17.3616C17.0381 19.5107 16.7757 19.2483 16.7757 18.9248C16.7757 18.6012 17.038 18.3389 17.3616 18.3389Z" fill="#1A86DC"/>
<path d="M1.54822 18.8663C2.84344 16.6229 5.70727 15.8552 7.951 17.1507L10.331 18.5247V13.4367C10.331 12.8077 10.539 12.1835 10.9168 11.679L13.8463 7.77305V6.1098C13.1644 5.86793 12.6745 5.21672 12.6745 4.45283V1.7577C12.6746 0.788496 13.4631 0 14.4323 0H24.9787C25.9479 0 26.7364 0.788496 26.7364 1.7577V4.45289C26.7364 5.21666 26.2465 5.86799 25.5646 6.10986V7.77311L28.4944 11.6793C28.8721 12.1835 29.0801 12.8077 29.0801 13.4367V24.7839C29.0801 26.3993 27.7659 27.7134 26.1506 27.7134H16.7344C15.4207 29.9156 12.5879 30.6526 10.3674 29.3704L3.26373 25.269C1.0398 23.9848 0.246504 21.1218 1.54822 18.8663ZM25.5646 1.7577C25.5646 1.43461 25.3018 1.17176 24.9787 1.17176H14.4324C14.1093 1.17176 13.8465 1.43461 13.8465 1.7577V4.45289C13.8465 4.77598 14.1093 5.03877 14.4324 5.03877H24.9787C25.3018 5.03877 25.5646 4.77592 25.5646 4.45289L25.5646 1.7577ZM27.5566 12.382L24.51 8.3199C24.4339 8.21853 24.3928 8.09514 24.3928 7.96834V6.21064H15.0183V7.38246H20.2914C20.615 7.38246 20.8774 7.64484 20.8774 7.9684C20.8774 8.29195 20.615 8.55434 20.2914 8.55434H14.7253L11.8546 12.3818C11.667 12.6323 11.5505 12.932 11.5153 13.2416H27.8958C27.8606 12.9319 27.7441 12.6322 27.5566 12.382ZM26.1505 26.5416C27.1197 26.5416 27.9082 25.7531 27.9082 24.7839V24.1922H17.2632C17.449 24.9519 17.4478 25.7633 17.235 26.5417H26.1505V26.5416ZM16.8036 23.0262H27.9083V14.4133H11.5028V19.2012L15.0547 21.2521C15.7953 21.6799 16.3939 22.2888 16.8036 23.0262ZM10.9532 28.3556C12.6347 29.3265 14.7833 28.7523 15.7549 27.0697C16.7312 25.3708 16.1395 23.2319 14.4687 22.2668L11.2884 20.4306L7.77293 26.5194L10.9532 28.3556ZM3.84967 24.2542L6.75809 25.9335L10.2736 19.8446L7.36512 18.1655C5.68254 17.1942 3.53467 17.7694 2.56307 19.4521C1.58719 21.1432 2.18063 23.2904 3.84967 24.2542Z" fill="#1A86DC"/>
</g>
<defs>
<clipPath id="clip0_2249_1502">
<rect width="30" height="30" fill="white" transform="matrix(-1 0 0 1 30 0)"/>
</clipPath>
</defs>
</svg>
