<svg width="49" height="49" viewBox="0 0 49 49" fill="none" xmlns="http://www.w3.org/2000/svg">
<path fill-rule="evenodd" clip-rule="evenodd" d="M11.7661 21.15C8.94875 21.654 6.33047 22.992 4.27688 25.014C1.61797 27.632 0.125 31.182 0.125 34.884V42.962C0.125 46.276 2.85297 48.962 6.21875 48.962C14.7175 48.962 34.2825 48.962 42.7812 48.962C46.147 48.962 48.875 46.276 48.875 42.962V34.884C48.875 31.182 47.382 27.632 44.7231 25.014C42.6695 22.992 40.0512 21.654 37.2339 21.15C38.1845 19.272 38.7188 17.156 38.7188 14.916C38.7188 7.19001 32.3467 0.916016 24.5 0.916016C16.6533 0.916016 10.2812 7.19001 10.2812 14.916C10.2812 17.156 10.8155 19.272 11.7661 21.15ZM34.4531 24.91C31.8897 27.388 28.3736 28.916 24.5 28.916C20.6264 28.916 17.1103 27.388 14.5469 24.91C14.4656 24.92 14.3844 24.924 14.3031 24.924C11.6198 24.924 9.04625 25.974 7.15109 27.842C5.25391 29.71 4.1875 32.244 4.1875 34.884V42.962C4.1875 44.066 5.0975 44.962 6.21875 44.962H42.7812C43.9025 44.962 44.8125 44.066 44.8125 42.962V34.884C44.8125 32.244 43.7461 29.71 41.8489 27.842C39.9538 25.974 37.3802 24.924 34.6969 24.924C34.6156 24.924 34.5344 24.92 34.4531 24.91ZM24.5 4.91602C30.1062 4.91602 34.6562 9.39802 34.6562 14.916C34.6562 20.436 30.1062 24.916 24.5 24.916C18.8937 24.916 14.3438 20.436 14.3438 14.916C14.3438 9.39802 18.8937 4.91602 24.5 4.91602Z" fill="#1EAFEB"/>
<path fill-rule="evenodd" clip-rule="evenodd" d="M32.625 33.016H30.5938C29.4725 33.016 28.5625 33.912 28.5625 35.016C28.5625 36.12 29.4725 37.016 30.5938 37.016H32.625V39.016C32.625 40.12 33.535 41.016 34.6562 41.016C35.7775 41.016 36.6875 40.12 36.6875 39.016V37.016H38.7188C39.84 37.016 40.75 36.12 40.75 35.016C40.75 33.912 39.84 33.016 38.7188 33.016H36.6875V31.016C36.6875 29.912 35.7775 29.016 34.6562 29.016C33.535 29.016 32.625 29.912 32.625 31.016V33.016Z" fill="#1EAFEB"/>
</svg>
