<svg width="49" height="39" viewBox="0 0 49 39" fill="none" xmlns="http://www.w3.org/2000/svg">
<path d="M36.3798 21.875C37.6914 21.875 38.7548 22.9383 38.7548 24.25C38.7548 25.468 37.8379 26.4718 36.6567 26.609L36.3798 26.625H8.86539L16.6841 34.4456C17.5403 35.3018 17.6061 36.6489 16.8817 37.5806L16.6841 37.8044C15.828 38.6605 14.4808 38.7264 13.5491 38.0019L13.3254 37.8044L1.45038 25.9294C0.019267 24.4983 0.92655 22.0954 2.85989 21.8892L3.12976 21.875H36.3798ZM35.4556 0.998048L35.6794 1.19562L47.5544 13.0706C48.9855 14.5017 48.0782 16.9046 46.1449 17.1108L45.875 17.125H12.625C11.3133 17.125 10.25 16.0617 10.25 14.75C10.25 13.532 11.1668 12.5282 12.348 12.391L12.625 12.375H40.1394L32.3206 4.55438C31.4645 3.69823 31.3986 2.35106 32.123 1.41936L32.3206 1.19562C33.1768 0.339472 34.5239 0.273614 35.4556 0.998048Z" fill="#1EAFEB"/>
</svg>
