<svg width="31" height="30" viewBox="0 0 31 30" fill="none" xmlns="http://www.w3.org/2000/svg">
<g clip-path="url(#clip0_2256_1605)">
<path d="M14.4441 8.90839H12.8352V7.35144C12.8352 7.02783 12.5641 6.76556 12.2298 6.76556C11.8955 6.76556 11.6244 7.02789 11.6244 7.35144V8.90839H10.0156C9.68122 8.90839 9.41016 9.17072 9.41016 9.49427C9.41016 9.81782 9.68122 10.0801 10.0156 10.0801H11.6244V11.6371C11.6244 11.9607 11.8955 12.223 12.2298 12.223C12.5641 12.223 12.8352 11.9607 12.8352 11.6371V10.0801H14.4441C14.7784 10.0801 15.0495 9.81782 15.0495 9.49427C15.0495 9.17072 14.7784 8.90839 14.4441 8.90839Z" fill="#1A86DC"/>
<path d="M12.2292 4.33838C9.29145 4.33838 6.90137 6.65136 6.90137 9.49433C6.90137 12.3373 9.29145 14.6503 12.2292 14.6503C15.1669 14.6503 17.557 12.3373 17.557 9.49433C17.557 6.65136 15.1669 4.33838 12.2292 4.33838ZM12.2292 13.4784C9.9591 13.4784 8.11224 11.6911 8.11224 9.49427C8.11224 7.29742 9.9591 5.51013 12.2292 5.51013C14.4993 5.51013 16.3461 7.29742 16.3461 9.49427C16.3461 11.6911 14.4993 13.4784 12.2292 13.4784Z" fill="#1A86DC"/>
<path d="M24.282 5.38744L18.8937 0.172902C18.7802 0.0630394 18.6262 0.00128174 18.4656 0.00128174H1.81628C0.814778 0.00128174 0 0.789835 0 1.75903V28.2418C0 29.211 0.814778 29.9995 1.81628 29.9995H13.3813C13.7156 29.9995 13.9867 29.7371 13.9867 29.4136C13.9867 29.0902 13.7155 28.8278 13.3813 28.8278H1.81628C1.48243 28.8278 1.21087 28.5649 1.21087 28.2419V1.75903C1.21087 1.43595 1.48249 1.17315 1.81628 1.17315H17.8601V4.62994C17.8601 5.59914 18.6749 6.38764 19.6764 6.38764H23.2484V16.8167C23.2484 17.1402 23.5196 17.4025 23.8538 17.4025C24.1881 17.4025 24.4593 17.1402 24.4593 16.8167V5.8017C24.4594 5.64631 24.3956 5.49731 24.282 5.38744ZM19.6765 5.21582C19.3426 5.21582 19.0711 4.95297 19.0711 4.62994V2.00173L22.3924 5.21582H19.6765Z" fill="#1A86DC"/>
<path d="M19.9791 16.4061H9.46478C9.13044 16.4061 8.85938 16.6685 8.85938 16.992C8.85938 17.3155 9.1305 17.5779 9.46478 17.5779H19.9791C20.3134 17.5779 20.5845 17.3155 20.5845 16.992C20.5846 16.6685 20.3134 16.4061 19.9791 16.4061Z" fill="#1A86DC"/>
<path d="M6.45314 16.4061H4.48041C4.14607 16.4061 3.875 16.6685 3.875 16.992C3.875 17.3155 4.14613 17.5779 4.48041 17.5779H6.45314C6.78748 17.5779 7.05855 17.3155 7.05855 16.992C7.05855 16.6685 6.78748 16.4061 6.45314 16.4061Z" fill="#1A86DC"/>
<path d="M15.4989 19.6871H9.46478C9.13044 19.6871 8.85938 19.9495 8.85938 20.273C8.85938 20.5965 9.1305 20.8589 9.46478 20.8589H15.4989C15.8333 20.8589 16.1043 20.5965 16.1043 20.273C16.1043 19.9495 15.8333 19.6871 15.4989 19.6871Z" fill="#1A86DC"/>
<path d="M6.45314 19.6871H4.48041C4.14607 19.6871 3.875 19.9495 3.875 20.273C3.875 20.5965 4.14613 20.8589 4.48041 20.8589H6.45314C6.78748 20.8589 7.05855 20.5965 7.05855 20.273C7.05855 19.9495 6.78748 19.6871 6.45314 19.6871Z" fill="#1A86DC"/>
<path d="M9.89285 23.1398C9.78029 23.0309 9.62463 22.9682 9.46484 22.9682C9.3056 22.9682 9.15 23.0308 9.03678 23.1398C8.92416 23.2488 8.85938 23.4 8.85938 23.5541C8.85938 23.7082 8.9241 23.8594 9.03678 23.9683C9.14939 24.0773 9.3056 24.14 9.46484 24.14C9.62469 24.14 9.78029 24.0773 9.89285 23.9683C10.0061 23.8594 10.0703 23.7082 10.0703 23.5541C10.0703 23.4 10.0061 23.2488 9.89285 23.1398Z" fill="#1A86DC"/>
<path d="M6.45314 22.9682H4.48041C4.14607 22.9682 3.875 23.2306 3.875 23.554C3.875 23.8776 4.14613 24.1399 4.48041 24.1399H6.45314C6.78748 24.1399 7.05855 23.8775 7.05855 23.554C7.05861 23.2306 6.78748 22.9682 6.45314 22.9682Z" fill="#1A86DC"/>
<path d="M27.2465 22.7337C27.0688 22.7337 26.8942 22.7465 26.7231 22.7698C27.1046 21.5315 26.7912 20.1338 25.7827 19.1577C25.0737 18.4717 24.1311 18.0938 23.1285 18.0938C22.1258 18.0938 21.1832 18.4717 20.4742 19.1577L15.6795 23.7978C14.9705 24.4839 14.5801 25.3961 14.5801 26.3664C14.5801 27.3368 14.9705 28.2489 15.6795 28.935C16.4114 29.6432 17.3724 29.9973 18.3337 29.9973C19.2949 29.9973 20.2563 29.6431 20.988 28.935L23.4966 26.5074C23.5735 28.4452 25.2257 29.999 27.2466 29.999C29.3164 29.999 31.0003 28.3694 31.0003 26.3663C31.0003 24.3632 29.3164 22.7337 27.2465 22.7337ZM20.1317 28.1064C19.1403 29.066 17.5271 29.066 16.5357 28.1064C16.0554 27.6417 15.7909 27.0237 15.7909 26.3664C15.7909 25.7091 16.0554 25.0911 16.5357 24.6264L18.505 22.7207L22.101 26.2007L20.1317 28.1064ZM22.9571 25.3721L19.3611 21.8921L21.3304 19.9864C21.8107 19.5215 22.4492 19.2656 23.1284 19.2656C23.8076 19.2656 24.4462 19.5215 24.9264 19.9864C25.9178 20.9458 25.9178 22.5069 24.9264 23.4663L22.9571 25.3721ZM26.6411 28.7562C25.5304 28.4925 24.7037 27.5213 24.7037 26.3664C24.7037 25.2114 25.5304 24.2402 26.6411 23.9766V28.7562ZM27.8519 28.7562V23.9766C28.9627 24.2402 29.7894 25.2114 29.7894 26.3663C29.7894 27.5213 28.9627 28.4925 27.8519 28.7562Z" fill="#1A86DC"/>
</g>
<defs>
<clipPath id="clip0_2256_1605">
<rect width="31" height="30" fill="white"/>
</clipPath>
</defs>
</svg>
