<svg width="32" height="32" viewBox="0 0 32 32" fill="none" xmlns="http://www.w3.org/2000/svg">
<path d="M30.0579 14.9408C30.0579 12.4998 28.0643 10.512 25.622 10.512C23.1798 10.512 21.1849 12.4992 21.1849 14.9408C21.1849 17.1392 22.7824 18.9517 24.8771 19.3011V23.952C24.8771 27.577 21.935 30.519 18.31 30.519C14.6851 30.519 11.7424 27.5763 11.7424 23.952L11.7264 18.624C13.4454 18.3949 15.1254 17.3894 16.6198 15.6723C16.8393 15.4202 16.9059 15.095 16.8681 14.7846C18.8214 12.2022 20.0329 8.68544 20.0329 5.98208C20.0329 1.80864 18.1628 1.37536 15.0704 0.66752L15.0659 0.65984C14.8758 0.27712 14.4918 0 14.0265 0C13.3731 0 12.8432 0.52928 12.8432 1.17504C12.8432 1.82848 13.3724 2.35776 14.0265 2.35776C14.2851 2.35776 14.5276 2.25024 14.7203 2.09728L14.7478 2.10752C17.75 2.7968 18.5603 2.98368 18.5603 5.98208C18.5603 8.35968 17.4352 11.5437 15.7155 13.8426C15.4307 13.8592 15.1491 13.9846 14.9385 14.2189C14.0598 15.2358 12.6556 16.4531 10.9968 16.4531C9.33917 16.4531 7.93629 15.2474 7.05757 14.233C6.84637 13.9987 6.56541 13.8733 6.28253 13.8573C4.55837 11.5501 3.43069 8.36224 3.43069 5.98144C3.43069 2.98112 4.22749 2.79488 7.24829 2.1056L7.25853 2.096C7.46589 2.24896 7.69181 2.35712 7.96701 2.35712C8.62045 2.35712 9.14973 1.8272 9.14973 1.1744C9.14909 0.52928 8.62045 0 7.96637 0C7.49981 0 7.11645 0.27712 6.91293 0.65856L6.91037 0.6592C3.81469 1.37344 1.94141 1.79904 1.94141 5.98208C1.94141 8.688 3.15741 12.2176 5.12797 14.7994C5.09021 15.1098 5.15741 15.4355 5.37693 15.687C6.87005 17.3926 8.53405 18.3942 10.2512 18.624L10.2531 23.9514C10.2537 28.3898 13.8723 32 18.31 32C22.7478 32 26.351 28.3898 26.351 23.9514V19.3005C28.4451 18.951 30.0579 17.1386 30.0579 14.9408ZM25.622 17.904C23.9945 17.904 22.6588 16.5766 22.6588 14.9421C22.6588 13.3139 23.9945 11.9872 25.622 11.9872C27.2496 11.9872 28.5699 13.3139 28.5699 14.9421C28.5705 16.576 27.2496 17.904 25.622 17.904Z" fill="#1A86DC"/>
<path d="M25.6216 12.7303C24.3992 12.7303 23.4033 13.7191 23.4033 14.9415C23.4033 16.1709 24.3992 17.1584 25.6216 17.1584C26.8433 17.1584 27.8398 16.1709 27.8398 14.9415C27.8398 13.7191 26.8433 12.7303 25.6216 12.7303Z" fill="#1A86DC"/>
</svg>
