<svg width="40" height="40" viewBox="0 0 40 40" fill="none" xmlns="http://www.w3.org/2000/svg">
<path d="M17.8003 21.6667C18.0946 21.3444 18.4062 21.0384 18.7337 20.75L19.3337 20.1833V27.8167C19.3337 28.0023 19.4074 28.1804 19.5387 28.3116C19.67 28.4429 19.848 28.5167 20.0337 28.5167C20.2193 28.5167 20.3974 28.4429 20.5286 28.3116C20.6599 28.1804 20.7337 28.0023 20.7337 27.8167C20.7337 25.3333 20.7337 22.8167 20.7337 20.3833C21.2484 20.8865 21.8061 21.3437 22.4003 21.75C22.4792 21.8034 22.5682 21.8402 22.6618 21.8581C22.7554 21.8759 22.8517 21.8745 22.9447 21.8539C23.0377 21.8332 23.1255 21.7938 23.2028 21.738C23.28 21.6822 23.3451 21.6112 23.394 21.5294C23.4428 21.4476 23.4745 21.3567 23.4869 21.2622C23.4994 21.1677 23.4925 21.0717 23.4666 20.98C23.4406 20.8883 23.3962 20.8029 23.3361 20.7289C23.276 20.655 23.2015 20.5941 23.117 20.55L22.9003 20.3833H22.8003L22.3837 20.0333C22.1217 19.8073 21.8714 19.5681 21.6337 19.3167C21.2837 18.9667 20.9337 18.6 20.6003 18.2167C20.5189 18.1239 20.4062 18.0646 20.2837 18.05C20.1598 18.003 20.0251 17.9922 19.8953 18.0187C19.7654 18.0453 19.6458 18.1082 19.5503 18.2C19.2503 18.5167 18.917 18.8 18.6003 19.1L17.267 20.35C17.1308 20.4751 17.0028 20.6087 16.8837 20.75C16.7484 20.8816 16.6706 21.0613 16.667 21.25C16.674 21.4379 16.7513 21.6164 16.8837 21.75C17.0207 21.8493 17.1891 21.8955 17.3576 21.8802C17.5261 21.8649 17.6834 21.789 17.8003 21.6667Z" fill="#1A86DC"/>
<path d="M10.783 36.8H29.2163C29.5365 36.8044 29.8543 36.7452 30.1514 36.6257C30.4485 36.5062 30.7188 36.3289 30.9468 36.1041C31.1747 35.8792 31.3557 35.6113 31.4792 35.3159C31.6028 35.0205 31.6664 34.7035 31.6663 34.3833V10.3C31.662 9.66041 31.406 9.04825 30.9537 8.59598C30.5014 8.14371 29.8893 7.8877 29.2497 7.88333H27.6663C27.6619 7.24529 27.4054 6.63487 26.9527 6.18526C26.4999 5.73564 25.8877 5.48332 25.2497 5.48333H23.4497C22.9962 4.49768 22.1775 3.72678 21.1663 3.33333C20.5254 3.06116 19.8208 2.97453 19.133 3.08333C18.9918 3.10052 18.8586 3.15843 18.7497 3.25C18.5083 3.29909 18.2772 3.38929 18.0663 3.51667C17.4743 3.8756 16.9905 4.3882 16.6663 5C16.5841 5.15072 16.5118 5.3066 16.4497 5.46667H14.783C14.4629 5.46225 14.145 5.5215 13.8479 5.64097C13.5509 5.76044 13.2805 5.93775 13.0526 6.1626C12.8246 6.38745 12.6436 6.65535 12.5201 6.95075C12.3966 7.24615 12.333 7.56315 12.333 7.88333H10.783C10.4635 7.88114 10.1466 7.9419 9.85053 8.06217C9.55447 8.18243 9.28499 8.35983 9.05748 8.58424C8.82998 8.80865 8.6489 9.07567 8.5246 9.37006C8.40029 9.66445 8.33519 9.98045 8.33301 10.3V34.3833C8.33298 34.7035 8.39657 35.0205 8.5201 35.3159C8.64363 35.6113 8.82463 35.8792 9.05258 36.1041C9.28053 36.3289 9.55089 36.5062 9.84795 36.6257C10.145 36.7452 10.4629 36.8044 10.783 36.8ZM13.9997 7.9C13.9997 7.70109 14.0787 7.51032 14.2193 7.36967C14.36 7.22902 14.5508 7.15 14.7497 7.15H17.0663C17.2561 7.15085 17.4405 7.08689 17.589 6.9687C17.7375 6.8505 17.8413 6.68515 17.883 6.5C17.9227 6.25855 18.0075 6.02674 18.133 5.81667C18.2971 5.47113 18.5652 5.18557 18.8997 5C19.1747 4.88074 19.4675 4.80754 19.7663 4.78333H19.9497C20.1775 4.82946 20.4007 4.89641 20.6163 4.98333C20.9727 5.12941 21.2904 5.35583 21.5448 5.64493C21.7992 5.93403 21.9834 6.278 22.083 6.65C22.131 6.82453 22.2356 6.97816 22.3804 7.08676C22.5252 7.19537 22.702 7.25279 22.883 7.25H25.2497C25.4486 7.25 25.6394 7.32902 25.78 7.46967C25.9207 7.61032 25.9997 7.80109 25.9997 8V10.8167C25.9997 11.0156 25.9207 11.2063 25.78 11.347C25.6394 11.4876 25.4486 11.5667 25.2497 11.5667H14.7497C14.5508 11.5667 14.36 11.4876 14.2193 11.347C14.0787 11.2063 13.9997 11.0156 13.9997 10.8167V7.9ZM9.99967 10.3C9.99967 10.1011 10.0787 9.91032 10.2193 9.76967C10.36 9.62902 10.5508 9.55 10.7497 9.55H12.333V10.8167C12.333 11.4576 12.5876 12.0723 13.0408 12.5255C13.494 12.9787 14.1087 13.2333 14.7497 13.2333H25.2497C25.8906 13.2333 26.5053 12.9787 26.9585 12.5255C27.4117 12.0723 27.6663 11.4576 27.6663 10.8167V9.55H29.2163C29.4153 9.55 29.606 9.62902 29.7467 9.76967C29.8873 9.91032 29.9663 10.1011 29.9663 10.3V34.3833C29.9663 34.5822 29.8873 34.773 29.7467 34.9137C29.606 35.0543 29.4153 35.1333 29.2163 35.1333H10.783C10.6817 35.1378 10.5806 35.1218 10.4857 35.0861C10.3909 35.0504 10.3042 34.9959 10.231 34.9258C10.1578 34.8557 10.0995 34.7715 10.0598 34.6783C10.02 34.585 9.99957 34.4847 9.99967 34.3833V10.3Z" fill="#1A86DC"/>
<path d="M19.167 8.88332H19.2503L19.4503 8.96665H19.817L20.017 8.88332C20.017 8.88332 20.017 8.88332 20.1003 8.88332L20.2337 8.71665C20.2685 8.65314 20.2964 8.5861 20.317 8.51665C20.317 8.51665 20.317 8.41665 20.317 8.38332C20.317 8.34999 20.317 8.38332 20.317 8.28332C20.317 8.18332 20.317 8.28332 20.317 8.18332V8.66665V8.56665V8.46665L20.5837 8.33332C20.5837 8.33332 20.4837 8.33332 20.417 8.23332C20.3503 8.13332 20.417 8.23332 20.3337 8.23332H20.0003C19.9354 8.21171 19.8652 8.21171 19.8003 8.23332H19.7003C19.7003 8.23332 19.617 8.23332 19.6003 8.23332C19.5837 8.23332 19.6003 8.23332 19.6003 8.33332C19.5863 8.37094 19.5863 8.41237 19.6003 8.44999C19.6003 8.44999 19.6003 8.44999 19.6003 8.54999L19.167 8.88332Z" fill="#1A86DC"/>
</svg>
